<?xml version="1.0" encoding="UTF-8"?>
<svg id="Capa_1" data-name="Capa 1" xmlns="http://www.w3.org/2000/svg" viewBox="0 0 744.96 744.96">
  <defs>
    <style>
      .cls-1 {
        fill: #ef6c6e;
        stroke: #ef6c6e;
        stroke-miterlimit: 10;
        stroke-width: 15px;
      }
    </style>
  </defs>
  <path class="cls-1" d="M630.56,114.4C561.62,45.47,469.97,7.5,372.48,7.5S183.34,45.47,114.4,114.4C45.47,183.34,7.5,274.99,7.5,372.48s37.97,189.14,106.9,258.08c68.94,68.93,160.59,106.9,258.08,106.9s189.14-37.97,258.08-106.9c68.93-68.94,106.9-160.59,106.9-258.08s-37.97-189.14-106.9-258.08ZM372.48,705.72c-183.75,0-333.24-149.49-333.24-333.24S188.73,39.24,372.48,39.24s333.24,149.49,333.24,333.24-149.49,333.24-333.24,333.24Z"/>
  <path class="cls-1" d="M596.08,525.43c33.15-43.56,47.29-98.04,47.29-152.95s-16.16-107.18-46.75-152.16c0,0-19.88-33.94-71.19-71.44-44.19-32.3-98.04-47.29-152.95-47.29-30.06,0-63.5,8.88-95.01,22-31.56,13.14-60.08,32.62-84.24,56.8l-8.19,8.2c-35.05,35.09-61.02,78.36-74.54,126.09-5.59,19.72-8.91,39.39-8.91,57.8,0,54.91,14.05,109.46,47.29,152.95s33.98,44.47,70.65,70.65c44.54,31.81,98.04,47.29,152.95,47.29s107.47-16.25,152.53-47.01c0,0,32.07-19.68,71.07-70.93ZM372.48,133.32c42,0,82.66,10.84,118.69,31.5l-118.69,118.69-118.69-118.69c36.03-20.66,76.69-31.5,118.69-31.5ZM164.82,491.17c-20.66-36.03-31.5-76.69-31.5-118.69s10.84-82.66,31.5-118.69l118.69,118.69-118.69,118.69ZM372.48,611.64c-42,0-82.66-10.84-118.69-31.5l118.69-118.69,118.69,118.69c-36.03,20.66-76.69,31.5-118.69,31.5ZM461.45,372.48l118.69-118.69c20.66,36.03,31.5,76.69,31.5,118.69s-10.84,82.66-31.5,118.69l-118.69-118.69Z"/>
</svg>